# xmcd
#
# Track frame offsets:
#	150
#	11512
#	25035
#	41270
#	59496
#	80381
#	98199
#	120851
#	142661
#	168643
#	186491
#	212840
#	229225
#	264697
#	294094
#
# Disc length: 4408 seconds
#
# Revision: 1
# Processed by: cddbd v1.5.1PL2 Copyright (c) Steve Scherf et al.
# Submitted via: EasyCDDAExtractor 9.0.0.1
#
DISCID=c411360f
DTITLE=Scorpions - Monsters Of Rock Donington 16-08-86 
DYEAR=1986
DGENRE=Hard Rock
TTITLE0=Opening
TTITLE1=Coming Home
TTITLE2=Blackout
TTITLE3=Bad Boys Running Wild
TTITLE4=Loving You Sunday Morning
TTITLE5=Make It Real
TTITLE6=Big City Nights
TTITLE7=Coast To Coast
TTITLE8=Still Loving You
TTITLE9=Rock You Like A Hurricane
TTITLE10=Can't Live Without You
TTITLE11=Another Peace Of Meat
TTITLE12=Dynamite
TTITLE13=Zoo
TTITLE14=Can't Get Enough
EXTD=
EXTT0=
EXTT1=
EXTT2=
EXTT3=
EXTT4=
EXTT5=
EXTT6=
EXTT7=
EXTT8=
EXTT9=
EXTT10=
EXTT11=
EXTT12=
EXTT13=
EXTT14=
PLAYORDER=
